<?xml version="1.0" encoding="utf-8"?>
<!-- Generator: Adobe Illustrator 21.0.0, SVG Export Plug-In . SVG Version: 6.00 Build 0)  -->
<svg version="1.1" id="Layer_1" xmlns="http://www.w3.org/2000/svg" xmlns:xlink="http://www.w3.org/1999/xlink" x="0px" y="0px"
	 viewBox="0 0 1881 1944" style="enable-background:new 0 0 1881 1944;" xml:space="preserve">
<style type="text/css">
	.st0{font-family:'DINPro-Bold';}
	.st1{font-size:24px;}
	.st2{fill:none;stroke:#000000;stroke-width:2;stroke-miterlimit:10;}
	.st3{font-size:25.416px;}
	.st4{font-family:'DINPro-Regular';}
	.st5{fill:none;stroke:#000000;stroke-miterlimit:10;}
	.st6{font-family:'DINPro-Light';}
	.st7{font-size:24.3702px;}
</style>
<g>
	<text transform="matrix(1 0 0 1 1194.3223 57.0259)" class="st0 st1">seattle</text>
	<line class="st2" x1="1230" y1="75" x2="1230" y2="363"/>
	<line class="st2" x1="1220.5" y1="354.5" x2="1409.5" y2="354.5"/>
	<text transform="matrix(1 0 0 1 1427.3455 362.0259)" class="st0 st1">los angeles</text>
	<line class="st2" x1="1521" y1="416.5" x2="689.5" y2="416.5"/>
	<text transform="matrix(1 0 0 1 618.3455 422.0259)" class="st0 st1">seoul</text>
	<line class="st2" x1="657.8" y1="432" x2="657.8" y2="675"/>
	<line class="st2" x1="648" y1="666.5" x2="1646.5" y2="666.5"/>
	<text transform="matrix(1 0 0 1 1665.3455 675.0259)" class="st0 st1">chicago</text>
	<line class="st2" x1="1710.5" y1="693" x2="1710.5" y2="765.5"/>
	<line class="st2" x1="1746" y1="729.5" x2="180.5" y2="729.5"/>
	<text transform="matrix(1 0 0 1 53.3455 738.0259)" class="st0 st1">singapore</text>
	<line class="st2" x1="107.5" y1="756" x2="107.5" y2="1035"/>
	<line class="st2" x1="1647" y1="1025.5" x2="99" y2="1025.5"/>
	<text transform="matrix(1 0 0 1 1665.3455 1034.0259)" class="st0 st1">chicago</text>
	<line class="st2" x1="638.2" y1="432" x2="638.2" y2="583.5"/>
	<line class="st2" x1="1701" y1="1053" x2="1700.5" y2="1187.5"/>
	<line class="st2" x1="1683" y1="1053" x2="1682.5" y2="1115.5"/>
	<line class="st2" x1="1719" y1="1053" x2="1719.5" y2="1350"/>
	<line class="st2" x1="1728" y1="1341.5" x2="180.5" y2="1341.5"/>
	<text transform="matrix(1 0 0 1 53.3455 1348.9768)" class="st0 st1">singapore</text>
	<line class="st2" x1="107.5" y1="1368" x2="107.5" y2="1566"/>
	<line class="st2" x1="1233" y1="1557.5" x2="99.5" y2="1557.5"/>
	<text transform="matrix(1 0 0 1 1250.3223 1566.0259)" class="st0 st1">seattle</text>
	<line class="st2" x1="1286" y1="1584" x2="1286" y2="1863"/>
	<line class="st2" x1="1277" y1="1855" x2="1466" y2="1855"/>
	<text transform="matrix(0.9443 0 -0.3291 0.9443 1481.6801 1863.0623)" class="st0 st3">san francisco</text>
	<text transform="matrix(1 0 0 1 1241.905 206.6692)" class="st4 st1">4</text>
	<text transform="matrix(1 0 0 1 1296 342)" class="st4 st1">2.5</text>
	<text transform="matrix(1 0 0 1 1736.6649 773.9093)" class="st4 st1">0.5 </text>
	<text transform="matrix(1 0 0 1 1044 405)" class="st4 st1">11</text>
	<text transform="matrix(1 0 0 1 1304.9048 1718.6693)" class="st4 st1">3</text>
	<text transform="matrix(1 0 0 1 1116 657)" class="st4 st1">13</text>
	<text transform="matrix(1 0 0 1 873 720)" class="st4 st1">21.5</text>
	<text transform="matrix(1 0 0 1 873 1017)" class="st4 st1">21.5</text>
	<text transform="matrix(1 0 0 1 125.7853 890.7898)" class="st4 st1">3</text>
	<text transform="matrix(1 0 0 1 873 1332)" class="st4 st1">21.5</text>
	<text transform="matrix(1 0 0 1 630 1548)" class="st4 st1">17</text>
	<text transform="matrix(1 0 0 1 1736.9053 1187.6698)" class="st4 st1">4</text>
	<text transform="matrix(1 0 0 1 674.905 548.6699)" class="st4 st1">3</text>
	<text transform="matrix(1 0 0 1 126.9047 1466.6699)" class="st4 st1">2</text>
	<text transform="matrix(1 0 0 1 1323 1845)" class="st4 st1">2</text>
	<text transform="matrix(1 0 0 1 1512.665 459.9094)" class="st4 st1">0.5</text>
	<line class="st2" x1="1485.5" y1="378" x2="1485.5" y2="450.5"/>
</g>
<line class="st5" x1="119.7" y1="250.9" x2="119.7" y2="42.3"/>
<line class="st5" x1="108.9" y1="238.5" x2="324.5" y2="238.5"/>
<text transform="matrix(0.9848 0 -0.1736 0.9848 164.295 265.0103)" class="st6 st7">flight time</text>
<text transform="matrix(0.9848 0 -0.1736 0.9848 52.4062 131.8172)" class="st6 st7">years</text>
</svg>
